<svg width="18" height="18" viewBox="0 0 18 18" fill="none" xmlns="http://www.w3.org/2000/svg">
<path d="M15.8127 7.23598C16.0952 5.3447 14.6552 4.328 12.6862 3.64975L13.3249 1.08777L11.765 0.699124L11.1432 3.19358C10.7337 3.09143 10.3126 2.99504 9.89417 2.89954L10.5205 0.388649L8.96186 0L8.3227 2.56109C7.98335 2.4838 7.65022 2.4074 7.32687 2.32701L7.32864 2.31901L5.17797 1.78201L4.76312 3.44765C4.76312 3.44765 5.92018 3.71282 5.89575 3.72925C6.52736 3.88693 6.64196 4.3049 6.62241 4.63625L5.89486 7.55489C5.93839 7.566 5.9948 7.58199 6.05698 7.60686L5.89264 7.566L4.87238 11.6546C4.7951 11.8465 4.59922 12.1343 4.15771 12.025C4.17326 12.0477 3.02419 11.7421 3.02419 11.7421L2.25 13.5276L4.27986 14.0336C4.6574 14.1282 5.0274 14.2272 5.39117 14.3205L4.74579 16.9122L6.3035 17.3009L6.9431 14.7371C7.36818 14.8526 7.78125 14.9592 8.18545 15.0596L7.54851 17.6114L9.10799 18L9.75337 15.4136C12.4126 15.9168 14.4127 15.7139 15.2535 13.3091C15.9318 11.3725 15.2202 10.2554 13.8211 9.52656C14.84 9.29071 15.608 8.62046 15.8127 7.23598ZM12.2492 12.2324C11.7668 14.169 8.50658 13.1226 7.44901 12.8596L8.30537 9.42663C9.3625 9.69046 12.7515 10.2128 12.2492 12.2324ZM12.7311 7.20799C12.2914 8.96957 9.57748 8.07457 8.69669 7.85515L9.4731 4.74152C10.3539 4.96094 13.1895 5.37046 12.7311 7.20799Z" fill="white"/>
</svg>
